<svg width="32" height="32" viewBox="0 0 32 32" fill="none" xmlns="http://www.w3.org/2000/svg">
<g clip-path="url(#clip0_37_2947)">
<path d="M0 16C0 7.16333 7.16333 0 16 0C24.8367 0 32 7.16333 32 16C32 24.8367 24.8367 32 16 32C7.16333 32 0 24.8367 0 16Z" fill="#2113E8"/>
<path fill-rule="evenodd" clip-rule="evenodd" d="M11.546 9.882C11.546 10.928 10.7587 11.7647 9.49401 11.7647H9.47067C8.25401 11.7647 7.46667 10.928 7.46667 9.882C7.46667 8.81333 8.27734 8 9.51801 8C10.758 8 11.5227 8.81333 11.546 9.882ZM11.3073 13.252V24.1467H7.68067V13.252H11.3073ZM24.3833 24.1467V17.9C24.3833 14.5533 22.5947 12.996 20.2087 12.996C18.2833 12.996 17.422 14.0533 16.9407 14.7953V13.252H13.314C13.362 14.2747 13.314 24.1467 13.314 24.1467H16.9407V18.062C16.9407 17.7367 16.964 17.412 17.06 17.1787C17.322 16.528 17.9187 15.8547 18.92 15.8547C20.2333 15.8547 20.758 16.854 20.758 18.318V24.1467H24.3833Z" fill="white"/>
</g>
<defs>
<clipPath id="clip0_37_2947">
<rect width="32" height="32" fill="white"/>
</clipPath>
</defs>
</svg>
